<svg xmlns="http://www.w3.org/2000/svg" width="20" height="25" fill="none">
  <path fill="#C22D22" d="M10.513 24.47c-3.831 0-6.886-2.067-7.765-3.019V8.737c2.11-4.03 8.818-2.893 14.049-.323 2.987 1.469 3.603 6.252 2.987 9.742-.615 3.49-4.481 6.315-9.27 6.315Z"/>
  <path fill="#FFFDED" d="M4.179 20.829V9.878c8.264-2.785 8.95 11.558 5.518 12.064-2.745.405-4.823-.573-5.518-1.113Z"/>
  <path fill="#C22D22" d="M5.374 16.43c-.019.646.256 1.884 1.504 1.672 1.248-.213-.483-1.203-1.504-1.671ZM5.324 15.885c.97.147 2.898.234 2.862-.594-.036-.827-1.923.051-2.862.594ZM5.356 14.673c.969-.148 2.742-.624 2.089-1.347-.654-.723-1.665.597-2.089 1.347Z"/>
  <path fill="#22181B" stroke="#C22D22" d="M4.78 4.72c-1.752.55-1.898 2.646-1.752 3.626H4.78V6.72c0-.95 2.685-1.73 4.027-2v-.938c-.613.083-2.276.387-4.027.938Z"/>
  <path fill="#0C6535" d="M2.856 1.05c.95.356 2.556 1.687 3.074 2.576l.159.822-.915-.063C1.442 4.038-1.6-.618 2.856 1.05Z"/>
</svg>
