<svg width="39" height="47" viewBox="0 0 39 47" fill="none" xmlns="http://www.w3.org/2000/svg">
<path d="M20.6282 47C13.3404 47 7.52991 43.0675 5.8584 41.2568V17.0733C9.87002 9.40805 22.6309 11.5702 32.5795 16.4596C38.2626 19.2527 39.4326 28.3498 38.2626 34.989C37.0925 41.6283 29.7379 47 20.6282 47Z" fill="#C22D22"/>
<path d="M8.58008 40.0728V19.2429C24.2993 13.9472 25.6049 41.2282 19.077 42.1911C13.8546 42.9613 9.90307 41.0998 8.58008 40.0728Z" fill="#FFFDED"/>
<path d="M10.8532 31.7075C10.8179 32.9355 11.3407 35.2904 13.7145 34.8858C16.0883 34.4813 12.796 32.5984 10.8532 31.7075Z" fill="#C22D22"/>
<path d="M10.7601 30.6699C12.6029 30.9492 16.2714 31.1144 16.2033 29.5402C16.1353 27.9661 12.5462 29.6374 10.7601 30.6699Z" fill="#C22D22"/>
<path d="M10.8189 28.3647C12.6608 28.0832 16.0338 27.1764 14.791 25.8019C13.5482 24.4273 11.6251 26.9377 10.8189 28.3647Z" fill="#C22D22"/>
<path d="M9.72036 9.43201C6.38995 10.4785 6.11242 14.4664 6.38995 16.3295H9.72036V13.2375C9.72036 11.4299 14.827 9.94734 17.3803 9.43201V7.64819C16.2146 7.80676 13.0508 8.38551 9.72036 9.43201Z" fill="#22181B" stroke="#C22D22"/>
<path d="M6.06317 2.45279C7.87094 3.12961 10.9257 5.66012 11.9108 7.35286L12.2118 8.91514L10.4722 8.79651C3.37372 8.13586 -2.41075 -0.719817 6.06317 2.45279Z" fill="#0C6535"/>
</svg>
