<svg width="16" height="16" viewBox="0 0 16 16" fill="none" xmlns="http://www.w3.org/2000/svg">
<g clip-path="url(#clip0_359_6207)">
<path fill-rule="evenodd" clip-rule="evenodd" d="M7.66996 15.3389C3.47028 15.3389 0.000976562 11.8696 0.000976562 7.66996C0.000976562 3.47028 3.46439 0.000976562 7.66407 0.000976562C11.8638 0.000976562 15.3389 3.47028 15.3389 7.66996C15.3389 11.8696 11.8696 15.3389 7.66996 15.3389ZM6.72701 11.5216C6.94494 11.5216 7.13343 11.4214 7.27479 11.2035L11.233 5.00117C11.3213 4.87159 11.3979 4.71256 11.3979 4.57119C11.3979 4.25901 11.1211 4.06464 10.8324 4.06464C10.6616 4.06464 10.4908 4.16477 10.3612 4.36504L6.69756 10.1904L4.74792 7.74599C4.59477 7.55161 4.43574 7.48093 4.24725 7.48093C3.95863 7.48093 3.71714 7.71065 3.71714 8.02282C3.71714 8.17008 3.77604 8.32911 3.87617 8.45281L6.14977 11.2094C6.33237 11.4332 6.50907 11.5216 6.72701 11.5216Z" fill="#FFB801"/>
</g>
<defs>
<clipPath id="clip0_359_6207">
<rect width="15.338" height="15.338" fill="white"/>
</clipPath>
</defs>
</svg>
