<svg xmlns="http://www.w3.org/2000/svg" width="31" height="42" fill="none">
  <path fill="#FFB801" d="M5.167 0C2.317 0 0 2.354 0 5.25v31.5C0 39.646 2.317 42 5.167 42h20.666C28.683 42 31 39.646 31 36.75V13.125H20.667c-1.43 0-2.584-1.173-2.584-2.625V0H5.167Zm15.5 0v10.5H31L20.667 0ZM6.458 5.25h5.167c.71 0 1.292.59 1.292 1.313 0 .721-.582 1.312-1.292 1.312H6.458c-.71 0-1.291-.59-1.291-1.313 0-.721.58-1.312 1.291-1.312Zm0 5.25h5.167c.71 0 1.292.59 1.292 1.313 0 .721-.582 1.312-1.292 1.312H6.458c-.71 0-1.291-.59-1.291-1.313 0-.721.58-1.312 1.291-1.312Zm1.292 7.875h15.5c1.429 0 2.583 1.173 2.583 2.625v5.25c0 1.452-1.154 2.625-2.583 2.625H7.75c-1.429 0-2.583-1.173-2.583-2.625V21c0-1.452 1.154-2.625 2.583-2.625Zm0 2.625v5.25h15.5V21H7.75Zm11.625 13.125h5.167c.71 0 1.291.59 1.291 1.313 0 .721-.58 1.312-1.291 1.312h-5.167c-.71 0-1.292-.59-1.292-1.313 0-.721.582-1.312 1.292-1.312Z"/>
</svg>
