<svg xmlns="http://www.w3.org/2000/svg" width="48" height="37" fill="none">
  <path fill="#FFB801" d="M5.333 0C2.392 0 0 2.37 0 5.286v26.428C0 34.63 2.392 37 5.333 37H8V0H5.333Zm5.334 0v37h26.666V0H10.667Zm32 37C45.608 37 48 34.63 48 31.714V5.286C48 2.37 45.608 0 42.667 0H40v37h2.667ZM21.333 11.893c0-.727.6-1.322 1.334-1.322h2.666c.734 0 1.334.595 1.334 1.322v3.964h4c.733 0 1.333.595 1.333 1.322v2.642c0 .727-.6 1.322-1.333 1.322h-4v3.964c0 .727-.6 1.322-1.334 1.322h-2.666a1.331 1.331 0 0 1-1.334-1.322v-3.964h-4A1.331 1.331 0 0 1 16 19.82V17.18c0-.727.6-1.322 1.333-1.322h4v-3.964Z"/>
</svg>
