<svg xmlns="http://www.w3.org/2000/svg" width="65" height="41" fill="none">
  <path fill="#FFB801" d="m32.155 2.264 9.83 8.371c1.636 1.389 1.95 3.887.712 5.67-1.31 1.901-3.86 2.275-5.617.833L26.995 8.895c-.71-.577-1.726-.449-2.285.299a1.765 1.765 0 0 0 .284 2.402l2.123 1.73L13 26.994V6.834h.071l.396-.267 7.374-4.965A9.349 9.349 0 0 1 26.06 0c2.214 0 4.367.8 6.094 2.264Zm-2.316 13.283 5.25 4.293c3.2 2.627 7.842 1.943 10.238-1.516 2.255-3.257 1.686-7.806-1.29-10.337L35.588.801a9.192 9.192 0 0 1 3.738-.79c1.91-.011 3.768.587 5.362 1.697L52 6.835v23.919h-2.864l-9.283 8.905c-1.99 1.912-5.068 1.762-6.886-.33a5.312 5.312 0 0 1-1.127-2.2l-1.727 1.666c-1.98 1.911-5.068 1.772-6.886-.31a5.233 5.233 0 0 1-1.005-1.762c-1.97 1.388-4.652 1.1-6.307-.8-1.818-2.083-1.686-5.33.294-7.24l13.63-13.135Zm33.536-8.713c.894 0 1.625.769 1.625 1.708v22.211c0 1.89-1.452 3.417-3.25 3.417H58.5c-1.798 0-3.25-1.527-3.25-3.417V6.834h8.125Zm-3.25 20.502c-.431 0-.844.18-1.149.5-.305.32-.476.755-.476 1.209 0 .453.171.887.476 1.208.305.32.718.5 1.149.5.431 0 .844-.18 1.149-.5.305-.32.476-.755.476-1.209 0-.453-.171-.887-.476-1.208-.305-.32-.718-.5-1.149-.5ZM9.75 6.834v23.919c0 1.89-1.452 3.417-3.25 3.417H3.25C1.452 34.17 0 32.643 0 30.753V8.543c0-.94.731-1.709 1.625-1.709H9.75ZM6.5 29.044c0-.453-.171-.887-.476-1.208-.305-.32-.718-.5-1.149-.5-.431 0-.844.18-1.149.5-.305.32-.476.755-.476 1.209 0 .453.171.887.476 1.208.305.32.718.5 1.149.5.431 0 .844-.18 1.149-.5.305-.32.476-.755.476-1.209Z"/>
</svg>
