<svg aria-hidden="true" style="position: absolute; width: 0; height: 0; overflow: hidden;" version="1.1" xmlns="http://www.w3.org/2000/svg" xmlns:xlink="http://www.w3.org/1999/xlink">
<defs>
<symbol id="phone" viewBox="0 0 32 32">
<path d="M10.826 3.884c-0.381-0.92-1.385-1.41-2.345-1.148l-4.354 1.188c-0.861 0.237-1.46 1.019-1.46 1.91 0 12.241 9.926 22.167 22.167 22.167 0.891 0 1.672-0.599 1.91-1.46l1.187-4.354c0.262-0.96-0.228-1.964-1.148-2.345l-4.75-1.979c-0.807-0.336-1.742-0.104-2.291 0.574l-1.999 2.439c-3.483-1.648-6.304-4.468-7.951-7.951l2.439-1.994c0.678-0.554 0.91-1.484 0.574-2.291l-1.979-4.75v-0.005z"></path>
</symbol>
<symbol id="logo" viewBox="0 0 70 32">
<path fill="#0c6535" style="fill: var(--color1, #0c6535)" d="M67.765 23.334c0.751-0.011 1.311 0.129 1.68 0.42 0.37 0.28 0.555 0.689 0.555 1.227 0 0.527-0.162 0.98-0.487 1.361-0.313 0.37-0.7 0.633-1.159 0.79 0.325 0.336 0.616 0.678 0.874 1.025 0.269 0.347 0.403 0.711 0.403 1.092 0 0.751-0.297 1.333-0.891 1.748-0.594 0.403-1.423 0.605-2.487 0.605-1.053 0-1.843-0.207-2.369-0.622-0.527-0.426-0.79-0.902-0.79-1.428 0-0.538 0.129-1.025 0.387-1.462 0.269-0.437 0.554-0.655 0.857-0.655 0.179 0 0.308 0.067 0.387 0.202 0.078 0.123 0.224 0.493 0.437 1.109 0.078 0.224 0.207 0.437 0.387 0.639 0.414 0.459 1.070 0.689 1.966 0.689-0.135-0.426-0.353-0.79-0.655-1.092-0.291-0.314-0.583-0.616-0.874-0.907s-0.549-0.599-0.773-0.924c-0.224-0.336-0.336-0.728-0.336-1.176 0-0.807 0.302-1.462 0.907-1.966 0.571-0.448 1.232-0.672 1.983-0.672zM67.698 26.443c0.448-0.482 0.672-0.868 0.672-1.159 0-0.134-0.050-0.252-0.151-0.353-0.089-0.112-0.224-0.168-0.403-0.168s-0.353 0.022-0.521 0.067c-0.157 0.045-0.285 0.078-0.387 0.101 0 0.426 0.263 0.93 0.79 1.512z"></path>
<path fill="#0c6535" style="fill: var(--color1, #0c6535)" d="M64.471 27.502c0.202 0 0.302 0.258 0.302 0.773 0 0.28-0.118 0.622-0.353 1.025-0.235 0.392-0.543 0.756-0.924 1.092-0.37 0.325-0.784 0.594-1.243 0.807s-0.907 0.319-1.344 0.319c-0.616 0-1.019-0.504-1.21-1.512-0.672 1.064-1.669 1.596-2.991 1.596-0.807 0-1.451-0.246-1.932-0.739s-0.717-1.092-0.706-1.798c0-1.904 0.633-3.406 1.899-4.503 0.874-0.751 1.781-1.126 2.722-1.126 0.426 0 0.762 0.034 1.008 0.101l0.386 0.101c0.459-2.162 0.991-3.607 1.596-4.335 0.202-0.246 0.403-0.37 0.605-0.37 0.325 0 0.627 0.224 0.907 0.672 0.246 0.37 0.37 0.689 0.37 0.958s-0.039 0.532-0.118 0.79c-0.078 0.258-0.179 0.498-0.302 0.723-0.112 0.213-0.241 0.426-0.387 0.639-0.146 0.202-0.291 0.409-0.437 0.622-0.325 1.21-0.566 2.565-0.723 4.067-0.045 0.426-0.067 0.767-0.067 1.025 0 0.773 0.129 1.159 0.387 1.159 0.291 0 0.997-0.583 2.117-1.748 0.202-0.224 0.347-0.336 0.437-0.336zM56.54 28.51c0 0.863 0.319 1.294 0.958 1.294 0.381 0 0.762-0.146 1.143-0.437 0.392-0.291 0.695-0.779 0.907-1.462 0.022-1.008 0.14-2.117 0.353-3.327-0.896 0.179-1.68 0.616-2.353 1.311s-1.008 1.568-1.008 2.621z"></path>
<path fill="#0c6535" style="fill: var(--color1, #0c6535)" d="M48.927 28.645l0.101 2.050c0 0.269-0.14 0.51-0.42 0.723s-0.661 0.319-1.143 0.319c-0.28 0-0.476-0.146-0.588-0.437-0.101-0.291-0.151-0.717-0.151-1.277 0-1.176 0.056-2.095 0.168-2.756 0.123-0.672 0.358-1.35 0.706-2.033-0.515-0.493-0.773-0.919-0.773-1.277 0-0.751 0.403-1.126 1.21-1.126 0.415 0 0.779 0.218 1.092 0.655 0.224 0.302 0.386 0.655 0.487 1.059 0.157 0.056 0.353 0.084 0.588 0.084 0.325 0 0.7-0.106 1.126-0.319l0.437-0.218c0.134-0.067 0.252-0.101 0.353-0.101 0.325 0 0.65 0.476 0.975 1.428-0.101 0.437-0.213 0.857-0.336 1.26-0.112 0.403-0.246 0.891-0.403 1.462s-0.241 0.958-0.252 1.159c0 0.19 0.062 0.286 0.185 0.286 0.168 0 0.375-0.106 0.622-0.319s0.493-0.443 0.739-0.689c0.246-0.258 0.471-0.493 0.672-0.706 0.213-0.213 0.358-0.319 0.437-0.319 0.157 0 0.235 0.19 0.235 0.571 0 0.773-0.342 1.535-1.025 2.285-0.672 0.751-1.445 1.12-2.319 1.109-0.515 0-0.902-0.207-1.159-0.622s-0.392-0.919-0.403-1.512c0-1.176 0.263-2.291 0.79-3.344-0.246 0.101-0.527 0.151-0.84 0.151-0.302 0-0.521-0.011-0.655-0.034-0.101 0.426-0.202 0.857-0.302 1.294-0.101 0.426-0.151 0.823-0.151 1.193z"></path>
<path fill="#0c6535" style="fill: var(--color1, #0c6535)" d="M47.011 27.502c0.202 0 0.302 0.258 0.302 0.773 0 0.28-0.118 0.622-0.353 1.025-0.235 0.392-0.543 0.756-0.924 1.092-0.37 0.325-0.784 0.594-1.244 0.807s-0.907 0.319-1.344 0.319c-0.594 0-0.991-0.521-1.193-1.563-0.291 0.482-0.672 0.879-1.143 1.193-0.471 0.302-1.103 0.454-1.899 0.454-0.784 0-1.417-0.246-1.899-0.739s-0.717-1.092-0.706-1.798c0-1.904 0.633-3.406 1.899-4.503 0.538-0.459 1.036-0.762 1.496-0.907 0.471-0.146 0.963-0.218 1.479-0.218s0.935 0.090 1.26 0.269c0.157-0.325 0.336-0.487 0.538-0.487 0.392 0 0.762 0.174 1.109 0.521 0.358 0.336 0.538 0.655 0.538 0.958-0.157 0.37-0.386 0.812-0.689 1.327-0.090 0.515-0.134 1.238-0.134 2.168s0.118 1.395 0.353 1.395c0.291 0 0.997-0.583 2.117-1.748 0.202-0.224 0.347-0.336 0.437-0.336zM39.079 28.51c0 0.863 0.319 1.294 0.958 1.294 0.683-0.011 1.249-0.375 1.697-1.092 0.157-0.246 0.286-0.549 0.386-0.907 0-1.255 0.112-2.33 0.336-3.226-0.907 0.179-1.697 0.616-2.369 1.311s-1.008 1.568-1.008 2.621z"></path>
<path fill="#0c6535" style="fill: var(--color1, #0c6535)" d="M33.001 25.821c0-0.403-0.241-0.605-0.723-0.605-0.471 0-0.935 0.37-1.395 1.109-0.459 0.728-0.745 1.473-0.857 2.235 0.022 0.258 0.045 0.515 0.067 0.773s0.034 0.51 0.034 0.756c0 0.594-0.196 0.997-0.588 1.21-0.179 0.101-0.353 0.196-0.521 0.286-0.157 0.090-0.342 0.134-0.555 0.134s-0.403-0.14-0.571-0.42c-0.157-0.291-0.235-0.739-0.235-1.344 0-1.692 0.123-3.159 0.37-4.403 0.381-1.927 1.137-3.988 2.268-6.184 0.157-0.302 0.387-0.448 0.689-0.437 0.302 0 0.549 0.207 0.739 0.622s0.28 0.762 0.269 1.042c0 0.28-0.045 0.555-0.134 0.823-0.078 0.258-0.185 0.515-0.319 0.773-0.123 0.246-0.269 0.504-0.437 0.773-0.157 0.258-0.314 0.538-0.471 0.84l-0.252 1.21c0.437-0.728 1.025-1.215 1.764-1.462 0.269-0.090 0.566-0.134 0.891-0.134 0.762 0 1.339 0.174 1.731 0.521 0.392 0.336 0.588 0.818 0.588 1.445 0 0.616-0.084 1.243-0.252 1.882-0.157 0.639-0.274 1.098-0.353 1.378-0.067 0.269-0.101 0.493-0.101 0.672s0.062 0.269 0.185 0.269c0.168 0 0.375-0.106 0.622-0.319s0.493-0.443 0.739-0.689c0.246-0.258 0.471-0.493 0.672-0.706 0.213-0.213 0.358-0.319 0.437-0.319 0.157 0 0.235 0.19 0.235 0.571 0 0.784-0.387 1.54-1.159 2.269-1.3 0.762-2.128 1.143-2.487 1.143-0.034 0-0.056-0.006-0.067-0.017-0.896 0-1.344-0.717-1.344-2.151 0-0.616 0.056-1.182 0.168-1.697 0.123-0.515 0.213-0.891 0.269-1.126s0.084-0.476 0.084-0.723z"></path>
<path fill="#0c6535" style="fill: var(--color1, #0c6535)" d="M27.939 27.502c0.202 0 0.302 0.174 0.302 0.521 0 0.336-0.090 0.7-0.269 1.092-0.168 0.392-0.431 0.773-0.79 1.143-0.347 0.358-0.795 0.667-1.344 0.924s-1.199 0.386-1.949 0.386c-0.739 0-1.389-0.218-1.949-0.655-0.56-0.448-0.84-1.087-0.84-1.916 0-0.84 0.129-1.596 0.386-2.268 0.269-0.683 0.616-1.272 1.042-1.764 0.437-0.493 0.93-0.874 1.479-1.143 0.549-0.28 1.070-0.42 1.563-0.42 0.863 0 1.294 0.342 1.294 1.025 0 0.392-0.084 0.706-0.252 0.941-0.157 0.235-0.319 0.353-0.487 0.353-0.224 0-0.42-0.078-0.588-0.235s-0.353-0.235-0.555-0.235c-0.202-0.011-0.398 0.084-0.588 0.286-0.179 0.202-0.33 0.459-0.454 0.773-0.246 0.627-0.37 1.361-0.37 2.201 0.011 0.403 0.196 0.706 0.555 0.907 0.246 0.134 0.538 0.207 0.874 0.218 0.336 0 0.655-0.112 0.958-0.336 0.314-0.224 0.599-0.465 0.857-0.723 0.258-0.269 0.482-0.515 0.672-0.739 0.202-0.224 0.353-0.336 0.454-0.336z"></path>
<path fill="#0c6535" style="fill: var(--color1, #0c6535)" d="M16.041 28.645l0.101 2.050c0 0.269-0.14 0.51-0.42 0.723s-0.661 0.319-1.143 0.319c-0.28 0-0.476-0.146-0.588-0.437-0.101-0.291-0.151-0.717-0.151-1.277 0-1.176 0.056-2.095 0.168-2.756 0.123-0.672 0.358-1.35 0.706-2.033-0.515-0.493-0.773-0.919-0.773-1.277 0-0.751 0.403-1.126 1.21-1.126 0.415 0 0.779 0.218 1.092 0.655 0.224 0.302 0.386 0.655 0.487 1.059 0.157 0.056 0.353 0.084 0.588 0.084 0.325 0 0.7-0.106 1.126-0.319l0.437-0.218c0.134-0.067 0.252-0.101 0.353-0.101 0.325 0 0.65 0.476 0.975 1.428-0.101 0.437-0.213 0.857-0.336 1.26-0.112 0.403-0.246 0.891-0.403 1.462s-0.241 0.958-0.252 1.159c0 0.19 0.062 0.286 0.185 0.286 0.168 0 0.375-0.106 0.622-0.319s0.493-0.443 0.739-0.689c0.246-0.258 0.471-0.493 0.672-0.706 0.213-0.213 0.359-0.319 0.437-0.319 0.157 0 0.235 0.19 0.235 0.571 0 0.773-0.342 1.535-1.025 2.285-0.672 0.751-1.445 1.12-2.319 1.109-0.515 0-0.902-0.207-1.159-0.622s-0.392-0.919-0.403-1.512c0-1.176 0.263-2.291 0.79-3.344-0.246 0.101-0.527 0.151-0.84 0.151-0.302 0-0.521-0.011-0.655-0.034-0.101 0.426-0.202 0.857-0.302 1.294-0.101 0.426-0.151 0.823-0.151 1.193z"></path>
<path fill="#0c6535" style="fill: var(--color1, #0c6535)" d="M10.536 20.545c0 0.123-0.168 0.185-0.504 0.185-0.123 0-0.286-0.017-0.487-0.050s-0.577-0.084-1.126-0.151c-0.549-0.067-1.137-0.101-1.764-0.101-0.616 0-1.176 0.168-1.68 0.504-0.504 0.325-0.93 0.745-1.277 1.26-0.336 0.515-0.599 1.092-0.79 1.731-0.179 0.639-0.269 1.266-0.269 1.882 0 1.12 0.258 1.994 0.773 2.621s1.232 0.941 2.151 0.941c1.658 0 2.929-0.588 3.814-1.764 0.269-0.359 0.487-0.756 0.655-1.193-0.818-0.101-1.445-0.403-1.882-0.907-0.437-0.515-0.655-1.143-0.655-1.882 0-0.751 0.207-1.344 0.622-1.781s0.969-0.655 1.664-0.655c0.706 0 1.243 0.269 1.613 0.807 0.381 0.526 0.571 1.193 0.571 2 0 0.28-0.011 0.543-0.034 0.79 0.202-0.090 0.37-0.185 0.504-0.286s0.269-0.151 0.403-0.151c0.224 0 0.336 0.095 0.336 0.286 0 0.392-0.134 0.734-0.403 1.025-0.258 0.28-0.605 0.493-1.042 0.639-0.336 1.636-1.053 2.929-2.151 3.882-1.087 0.952-2.498 1.428-4.235 1.428s-3.092-0.527-4.067-1.58c-0.851-0.93-1.277-2.123-1.277-3.579 0-0.986 0.157-1.938 0.47-2.857 0.325-0.919 0.779-1.731 1.361-2.437 0.594-0.706 1.311-1.271 2.151-1.697s1.781-0.639 2.823-0.639c1.053 0 1.938 0.185 2.655 0.555s1.075 0.762 1.075 1.176zM9.998 22.662c-0.235 0-0.353 0.19-0.353 0.571 0 0.672 0.269 1.159 0.807 1.462 0.034-0.302 0.050-0.616 0.050-0.941 0-0.728-0.168-1.092-0.504-1.092z"></path>
<path fill="#0c6535" style="fill: var(--color1, #0c6535)" d="M47.528 8.215c0.751-0.011 1.311 0.129 1.68 0.42 0.37 0.28 0.555 0.689 0.555 1.227 0 0.526-0.162 0.98-0.487 1.361-0.314 0.37-0.7 0.633-1.159 0.79 0.325 0.336 0.616 0.678 0.874 1.025 0.269 0.347 0.403 0.711 0.403 1.092 0 0.751-0.297 1.333-0.891 1.748-0.594 0.403-1.423 0.605-2.487 0.605-1.053 0-1.843-0.207-2.369-0.622-0.526-0.426-0.79-0.902-0.79-1.428 0-0.538 0.129-1.025 0.386-1.462 0.269-0.437 0.555-0.655 0.857-0.655 0.179 0 0.308 0.067 0.386 0.202 0.078 0.123 0.224 0.493 0.437 1.109 0.078 0.224 0.207 0.437 0.386 0.639 0.415 0.459 1.070 0.689 1.966 0.689-0.134-0.426-0.353-0.79-0.655-1.092-0.291-0.314-0.583-0.616-0.874-0.907s-0.549-0.599-0.773-0.924c-0.224-0.336-0.336-0.728-0.336-1.176 0-0.807 0.302-1.462 0.907-1.966 0.571-0.448 1.232-0.672 1.983-0.672zM47.46 11.324c0.448-0.482 0.672-0.868 0.672-1.159 0-0.134-0.050-0.252-0.151-0.353-0.090-0.112-0.224-0.168-0.403-0.168s-0.353 0.022-0.521 0.067c-0.157 0.045-0.286 0.078-0.386 0.101 0 0.426 0.263 0.93 0.79 1.512z"></path>
<path fill="#0c6535" style="fill: var(--color1, #0c6535)" d="M41.145 6.014h1.042v3.226h-1.042v-3.226z"></path>
<path fill="#0c6535" style="fill: var(--color1, #0c6535)" d="M41.346 12.383c0.202 0 0.302 0.258 0.302 0.773 0 0.28-0.118 0.622-0.353 1.025-0.235 0.392-0.543 0.756-0.924 1.092-0.37 0.325-0.784 0.594-1.243 0.807s-0.907 0.319-1.344 0.319c-0.594 0-0.991-0.521-1.193-1.563-0.291 0.482-0.672 0.879-1.143 1.193-0.47 0.302-1.103 0.454-1.899 0.454-0.784 0-1.417-0.246-1.899-0.739s-0.717-1.092-0.706-1.798c0-1.904 0.633-3.406 1.899-4.503 0.538-0.459 1.036-0.762 1.496-0.907 0.471-0.146 0.963-0.218 1.479-0.218s0.935 0.090 1.26 0.269c0.157-0.325 0.336-0.487 0.538-0.487 0.392 0 0.762 0.174 1.109 0.521 0.358 0.336 0.538 0.655 0.538 0.958-0.157 0.37-0.386 0.812-0.689 1.327-0.090 0.515-0.134 1.238-0.134 2.168s0.118 1.395 0.353 1.395c0.291 0 0.997-0.583 2.117-1.748 0.202-0.224 0.347-0.336 0.437-0.336zM33.415 13.391c0 0.863 0.319 1.294 0.958 1.294 0.683-0.011 1.249-0.375 1.697-1.092 0.157-0.246 0.286-0.549 0.387-0.907 0-1.255 0.112-2.33 0.336-3.226-0.907 0.179-1.697 0.616-2.369 1.311s-1.008 1.568-1.008 2.621z"></path>
<path fill="#0c6535" style="fill: var(--color1, #0c6535)" d="M24.237 7.964c0.403 0 0.784 0.386 1.143 1.159 0.527-0.549 1.176-0.823 1.949-0.823 0.784 0 1.372 0.174 1.764 0.521 0.392 0.336 0.588 0.818 0.588 1.445 0 0.616-0.084 1.243-0.252 1.882-0.157 0.639-0.274 1.098-0.353 1.378-0.067 0.269-0.101 0.493-0.101 0.672s0.062 0.269 0.185 0.269c0.168 0 0.375-0.106 0.622-0.319s0.493-0.442 0.739-0.689c0.246-0.258 0.471-0.493 0.672-0.706 0.213-0.213 0.358-0.319 0.437-0.319 0.157 0 0.235 0.19 0.235 0.571 0 0.784-0.386 1.54-1.159 2.269-1.299 0.762-2.128 1.143-2.487 1.143-0.034 0-0.056-0.006-0.067-0.017-0.896 0-1.344-0.717-1.344-2.151 0-0.616 0.056-1.182 0.168-1.697 0.123-0.515 0.213-0.891 0.269-1.126s0.084-0.476 0.084-0.723c0-0.403-0.235-0.605-0.706-0.605-0.459 0-0.902 0.347-1.327 1.042-0.415 0.683-0.695 1.395-0.84 2.134v0.118c0 0.381 0.056 0.773 0.168 1.176 0.123 0.403 0.185 0.683 0.185 0.84 0 0.381-0.476 0.756-1.428 1.126-0.146 0.056-0.274 0.084-0.386 0.084-0.28 0-0.476-0.146-0.588-0.437-0.101-0.291-0.151-0.745-0.151-1.361 0-1.591 0.062-2.739 0.185-3.445 0.168-1.053 0.549-2.033 1.143-2.941 0.202-0.314 0.42-0.471 0.655-0.471z"></path>
<path fill="#0c6535" style="fill: var(--color1, #0c6535)" d="M15.213 7.964c0.403 0 0.784 0.386 1.143 1.159 0.527-0.549 1.176-0.823 1.949-0.823 0.784 0 1.372 0.174 1.764 0.521 0.392 0.336 0.588 0.818 0.588 1.445 0 0.616-0.084 1.243-0.252 1.882-0.157 0.639-0.274 1.098-0.353 1.378-0.067 0.269-0.101 0.493-0.101 0.672s0.062 0.269 0.185 0.269c0.168 0 0.375-0.106 0.622-0.319s0.493-0.442 0.739-0.689c0.246-0.258 0.471-0.493 0.672-0.706 0.213-0.213 0.358-0.319 0.437-0.319 0.157 0 0.235 0.19 0.235 0.571 0 0.784-0.386 1.54-1.159 2.269-1.299 0.762-2.128 1.143-2.487 1.143-0.034 0-0.056-0.006-0.067-0.017-0.896 0-1.344-0.717-1.344-2.151 0-0.616 0.056-1.182 0.168-1.697 0.123-0.515 0.213-0.891 0.269-1.126s0.084-0.476 0.084-0.723c0-0.403-0.235-0.605-0.706-0.605-0.459 0-0.902 0.347-1.327 1.042-0.415 0.683-0.695 1.395-0.84 2.134v0.118c0 0.381 0.056 0.773 0.168 1.176 0.123 0.403 0.185 0.683 0.185 0.84 0 0.381-0.476 0.756-1.428 1.126-0.146 0.056-0.274 0.084-0.386 0.084-0.28 0-0.476-0.146-0.588-0.437-0.101-0.291-0.151-0.745-0.151-1.361 0-1.591 0.062-2.739 0.185-3.445 0.168-1.053 0.549-2.033 1.143-2.941 0.202-0.314 0.42-0.471 0.655-0.471z"></path>
<path fill="#0c6535" style="fill: var(--color1, #0c6535)" d="M13.526 12.383c0.19 0 0.286 0.258 0.286 0.773 0 0.28-0.118 0.622-0.353 1.025-0.235 0.392-0.543 0.756-0.924 1.092-0.37 0.325-0.784 0.594-1.243 0.807s-0.907 0.319-1.344 0.319c-0.661 0-1.12-0.162-1.378-0.487-0.246-0.336-0.37-0.823-0.37-1.462 0-0.65 0.252-1.759 0.756-3.327-1.546-0.067-2.672-0.101-3.378-0.101h-0.235c-0.202 1.243-0.302 2.549-0.302 3.915 0 0.605-0.23 1.019-0.689 1.244-0.213 0.101-0.42 0.196-0.622 0.286-0.19 0.090-0.398 0.134-0.622 0.134-0.56 0-0.84-0.504-0.84-1.512s0.23-2.302 0.689-3.882c-0.493 0.056-0.93 0.112-1.311 0.168-0.37 0.056-0.661 0.084-0.874 0.084s-0.319-0.056-0.319-0.168c0-0.336 0.274-0.678 0.823-1.025 0.56-0.347 1.316-0.611 2.268-0.79 1.053-2.677 2.341-4.464 3.865-5.36 0.56-0.336 1.154-0.504 1.781-0.504 1.12 0.011 1.927 0.314 2.42 0.907 0.504 0.594 0.756 1.383 0.756 2.369 0.011 0.975-0.286 2.246-0.891 3.814-0.224 0.605-0.431 1.154-0.622 1.647s-0.286 0.891-0.286 1.193 0.022 0.532 0.067 0.689c0.045 0.157 0.151 0.235 0.319 0.235 0.302 0 1.014-0.583 2.134-1.748 0.202-0.224 0.347-0.336 0.437-0.336zM9.947 7.375c0-0.975-0.364-1.462-1.092-1.462-0.739 0-1.378 0.314-1.916 0.941-0.527 0.616-0.935 1.445-1.227 2.487l3.814 0.050c0.28-0.896 0.42-1.568 0.42-2.016z"></path>
<path fill="#c22d22" style="fill: var(--color2, #c22d22)" d="M59.15 17.245c-2.659 0-4.779-1.435-5.389-2.095v-8.823c1.464-2.797 6.119-2.008 9.749-0.224 2.073 1.019 2.5 4.338 2.073 6.76s-3.11 4.382-6.434 4.382z"></path>
<path fill="#fffded" style="fill: var(--color3, #fffded)" d="M54.755 14.718v-7.6c5.735-1.932 6.211 8.021 3.83 8.373-1.905 0.281-3.347-0.398-3.83-0.773z"></path>
<path fill="#c22d22" style="fill: var(--color2, #c22d22)" d="M55.584 11.666c-0.013 0.448 0.178 1.307 1.044 1.16s-0.335-0.835-1.044-1.16z"></path>
<path fill="#c22d22" style="fill: var(--color2, #c22d22)" d="M55.55 11.287c0.672 0.102 2.011 0.162 1.986-0.412s-1.334 0.035-1.986 0.412z"></path>
<path fill="#c22d22" style="fill: var(--color2, #c22d22)" d="M55.571 10.446c0.672-0.103 1.903-0.434 1.449-0.935s-1.155 0.414-1.449 0.935z"></path>
<path fill="#22181b" style="fill: var(--color4, #22181b); stroke: var(--color2, #c22d22)" stroke="#c22d22" stroke-linejoin="miter" stroke-linecap="butt" stroke-miterlimit="4" stroke-width="0.6667" d="M55.171 3.538c-1.215 0.382-1.316 1.837-1.215 2.516h1.215v-1.128c0-0.659 1.863-1.2 2.795-1.388v-0.651c-0.425 0.058-1.58 0.269-2.795 0.651z"></path>
<path fill="#0c6535" style="fill: var(--color1, #0c6535)" d="M53.837 0.992c0.66 0.247 1.774 1.17 2.134 1.788l0.11 0.57-0.635-0.043c-2.59-0.241-4.7-3.472-1.609-2.314z"></path>
</symbol>
<symbol id="menu-hamburger" viewBox="0 0 31 32">
<path d="M7.979 10.459c0-0.613 0.481-1.108 1.077-1.108h12.919c0.596 0 1.077 0.495 1.077 1.108s-0.481 1.108-1.077 1.108h-12.919c-0.595 0-1.077-0.495-1.077-1.108zM7.979 16c0-0.613 0.481-1.108 1.077-1.108h12.919c0.596 0 1.077 0.495 1.077 1.108s-0.481 1.108-1.077 1.108h-12.919c-0.595 0-1.077-0.495-1.077-1.108zM23.051 21.541c0 0.613-0.481 1.108-1.077 1.108h-12.919c-0.595 0-1.077-0.495-1.077-1.108s0.481-1.108 1.077-1.108h12.919c0.596 0 1.077 0.495 1.077 1.108z"></path>
</symbol>
<symbol id="close" viewBox="0 0 31 32">
<path d="M21.745 11.773c0.554-0.554 0.554-1.453 0-2.007s-1.453-0.554-2.007 0l-4.666 4.67-4.67-4.666c-0.554-0.554-1.453-0.554-2.007 0s-0.554 1.453 0 2.007l4.67 4.666-4.666 4.67c-0.554 0.554-0.554 1.453 0 2.007s1.453 0.554 2.007 0l4.666-4.67 4.67 4.666c0.554 0.554 1.453 0.554 2.007 0s0.554-1.453 0-2.007l-4.67-4.666 4.666-4.67z"></path>
</symbol>
<symbol id="facebook" viewBox="0 0 32 32">
<path d="M21.388 9.143h-10.776c-0.39 0-0.763 0.155-1.039 0.43s-0.43 0.649-0.43 1.039v10.776c0 0.39 0.155 0.763 0.43 1.039s0.649 0.43 1.039 0.43h4.202v-4.663h-1.929v-2.195h1.929v-1.673c0-1.903 1.133-2.954 2.867-2.954 0.831 0 1.7 0.148 1.7 0.148v1.867h-0.957c-0.943 0-1.237 0.585-1.237 1.186v1.425h2.105l-0.337 2.195h-1.769v4.663h4.202c0.39 0 0.763-0.155 1.039-0.43s0.43-0.649 0.43-1.039v-10.776c0-0.39-0.155-0.763-0.43-1.039s-0.649-0.43-1.039-0.43z"></path>
</symbol>
<symbol id="instagram" viewBox="0 0 32 32">
<path d="M16.002 12.483c-1.946 0-3.515 1.57-3.515 3.515s1.569 3.515 3.515 3.515c1.946 0 3.515-1.57 3.515-3.515s-1.57-3.515-3.515-3.515zM16.002 18.284c-1.258 0-2.285-1.025-2.285-2.285s1.025-2.285 2.285-2.285c1.261 0 2.285 1.025 2.285 2.285s-1.028 2.285-2.285 2.285zM20.481 12.339c0 0.456-0.367 0.82-0.82 0.82-0.456 0-0.82-0.367-0.82-0.82s0.367-0.82 0.82-0.82c0.453 0 0.82 0.367 0.82 0.82zM22.809 13.171c-0.052-1.098-0.303-2.071-1.108-2.873-0.802-0.802-1.774-1.052-2.873-1.108-1.132-0.064-4.525-0.064-5.657 0-1.095 0.052-2.068 0.303-2.873 1.104s-1.052 1.774-1.108 2.873c-0.064 1.132-0.064 4.525 0 5.657 0.052 1.098 0.303 2.071 1.108 2.873s1.774 1.052 2.873 1.108c1.132 0.064 4.525 0.064 5.657 0 1.098-0.052 2.071-0.303 2.873-1.108 0.802-0.802 1.052-1.774 1.108-2.873 0.064-1.132 0.064-4.522 0-5.654zM21.346 20.040c-0.239 0.6-0.701 1.062-1.303 1.303-0.903 0.358-3.044 0.275-4.042 0.275s-3.142 0.080-4.042-0.275c-0.6-0.239-1.062-0.701-1.303-1.303-0.358-0.903-0.275-3.044-0.275-4.042s-0.080-3.142 0.275-4.042c0.239-0.6 0.701-1.062 1.303-1.303 0.903-0.358 3.044-0.275 4.042-0.275s3.142-0.080 4.042 0.275c0.6 0.239 1.062 0.701 1.303 1.303 0.358 0.903 0.275 3.044 0.275 4.042s0.083 3.142-0.275 4.042z"></path>
</symbol>
<symbol id="whatsapp" viewBox="0 0 32 32">
<path fill="#43c654" style="fill: var(--color1, #43c654)" d="M16 0c8.837 0 16 7.163 16 16s-7.163 16-16 16c-8.837 0-16-7.163-16-16s7.163-16 16-16z"></path>
<path fill="#fff" style="fill: var(--color2, #fff)" opacity="0.9" d="M22.004 9.793c-1.637-1.641-3.816-2.543-6.133-2.543-4.781 0-8.672 3.891-8.672 8.672 0 1.527 0.398 3.020 1.156 4.336l-1.23 4.492 4.598-1.207c1.266 0.691 2.691 1.055 4.145 1.055h0.004c4.777 0 8.754-3.891 8.754-8.672 0-2.316-0.984-4.492-2.621-6.133zM15.871 23.137c-1.297 0-2.566-0.348-3.672-1.004l-0.262-0.156-2.727 0.715 0.727-2.66-0.172-0.273c-0.723-1.148-1.102-2.473-1.102-3.836 0-3.973 3.234-7.207 7.211-7.207 1.926 0 3.734 0.75 5.094 2.113s2.195 3.172 2.191 5.098c0 3.977-3.316 7.211-7.289 7.211zM19.824 17.738c-0.215-0.109-1.281-0.633-1.48-0.703-0.199-0.074-0.344-0.109-0.488 0.109s-0.559 0.703-0.687 0.852c-0.125 0.145-0.254 0.164-0.469 0.055-1.273-0.637-2.109-1.137-2.949-2.578-0.223-0.383 0.223-0.355 0.637-1.184 0.070-0.145 0.035-0.27-0.020-0.379s-0.488-1.176-0.668-1.609c-0.176-0.422-0.355-0.363-0.488-0.371-0.125-0.008-0.27-0.008-0.414-0.008s-0.379 0.055-0.578 0.27c-0.199 0.219-0.758 0.742-0.758 1.809s0.777 2.098 0.883 2.242c0.109 0.145 1.527 2.332 3.703 3.273 1.375 0.594 1.914 0.645 2.602 0.543 0.418-0.063 1.281-0.523 1.461-1.031s0.18-0.941 0.125-1.031c-0.051-0.098-0.195-0.152-0.41-0.258z"></path>
</symbol>
<symbol id="telegram" viewBox="0 0 32 32">
<path fill="#30a8db" style="fill: var(--color3, #30a8db)" d="M16 0c8.837 0 16 7.163 16 16s-7.163 16-16 16c-8.837 0-16-7.163-16-16s7.163-16 16-16z"></path>
<path fill="#fff" style="fill: var(--color2, #fff)" opacity="0.9" d="M16 6.070c-5.484 0-9.93 4.446-9.93 9.93s4.446 9.93 9.93 9.93c5.484 0 9.93-4.446 9.93-9.93s-4.446-9.93-9.93-9.93zM20.603 12.823c-0.149 1.57-0.796 5.38-1.125 7.139-0.139 0.744-0.413 0.994-0.679 1.018-0.577 0.053-1.014-0.381-1.573-0.747-0.874-0.573-1.368-0.929-2.216-1.489-0.98-0.646-0.345-1.001 0.214-1.582 0.146-0.152 2.687-2.463 2.736-2.672 0.006-0.026 0.012-0.124-0.046-0.176s-0.144-0.034-0.206-0.020c-0.088 0.020-1.484 0.943-4.188 2.768-0.396 0.272-0.755 0.405-1.077 0.398-0.355-0.008-1.037-0.2-1.544-0.365-0.622-0.202-1.116-0.309-1.073-0.652 0.022-0.179 0.269-0.362 0.739-0.549 2.895-1.261 4.825-2.093 5.791-2.494 2.758-1.147 3.331-1.346 3.704-1.353 0.082-0.001 0.266 0.019 0.385 0.116 0.079 0.069 0.13 0.165 0.141 0.269 0.020 0.129 0.026 0.261 0.017 0.391z"></path>
</symbol>
<symbol id="viber" viewBox="0 0 32 32">
<path fill="#6f3fad" style="fill: var(--color4, #6f3fad)" d="M16 0c8.837 0 16 7.163 16 16s-7.163 16-16 16c-8.837 0-16-7.163-16-16s7.163-16 16-16z"></path>
<path fill="#fff" style="fill: var(--color2, #fff)" opacity="0.9" d="M23.528 7.748c-0.508-0.468-2.566-1.962-7.155-1.982 0 0-5.409-0.324-8.044 2.094-1.465 1.465-1.982 3.615-2.038 6.278s-0.124 7.651 4.685 9.005h0.004l-0.004 2.066c0 0-0.032 0.837 0.52 1.005 0.665 0.208 1.057-0.428 1.694-1.113 0.348-0.376 0.829-0.929 1.193-1.349 3.291 0.276 5.818-0.356 6.106-0.448 0.665-0.216 4.424-0.697 5.033-5.686 0.633-5.149-0.304-8.4-1.994-9.87zM24.084 17.242c-0.517 4.164-3.564 4.428-4.124 4.608-0.24 0.076-2.462 0.629-5.253 0.448 0 0-2.082 2.51-2.731 3.163-0.212 0.212-0.444 0.192-0.44-0.228 0-0.276 0.016-3.431 0.016-3.431-0.004 0-0.004 0 0 0-4.076-1.129-3.836-5.377-3.792-7.599s0.464-4.044 1.706-5.269c2.23-2.022 6.823-1.722 6.823-1.722 3.88 0.016 5.738 1.185 6.17 1.578 1.429 1.225 2.158 4.156 1.626 8.452zM18.519 14.006c0.016 0.344-0.5 0.368-0.516 0.024-0.044-0.881-0.456-1.309-1.305-1.357-0.344-0.020-0.312-0.537 0.028-0.517 1.117 0.060 1.738 0.701 1.794 1.85zM19.331 14.459c0.040-1.698-1.021-3.027-3.035-3.175-0.34-0.024-0.304-0.541 0.036-0.517 2.322 0.168 3.559 1.766 3.515 3.704-0.004 0.344-0.525 0.328-0.517-0.012zM21.213 14.995c0.004 0.344-0.517 0.348-0.517 0.004-0.024-3.263-2.198-5.041-4.837-5.061-0.34-0.004-0.34-0.517 0-0.517 2.951 0.020 5.325 2.058 5.353 5.573zM20.761 18.923v0.008c-0.432 0.761-1.241 1.602-2.074 1.333l-0.008-0.012c-0.845-0.236-2.835-1.261-4.092-2.262-0.649-0.513-1.241-1.117-1.698-1.698-0.412-0.517-0.829-1.129-1.233-1.866-0.853-1.542-1.041-2.23-1.041-2.23-0.268-0.833 0.569-1.642 1.333-2.074h0.008c0.368-0.192 0.721-0.128 0.957 0.156 0 0 0.496 0.593 0.709 0.885 0.2 0.272 0.468 0.709 0.609 0.953 0.244 0.436 0.092 0.881-0.148 1.065l-0.48 0.384c-0.244 0.196-0.212 0.561-0.212 0.561s0.713 2.695 3.375 3.375c0 0 0.364 0.032 0.561-0.212l0.384-0.481c0.184-0.24 0.629-0.392 1.065-0.148 0.589 0.332 1.337 0.849 1.834 1.317 0.28 0.228 0.344 0.577 0.152 0.945z"></path>
</symbol>
<symbol id="comment" viewBox="0 0 32 32">
<path d="M16.403 28.1c8.617 0 15.6-5.673 15.6-12.675s-6.983-12.675-15.6-12.675c-8.617 0-15.6 5.673-15.6 12.675 0 2.748 1.079 5.289 2.907 7.367-0.116 1.493-0.695 2.822-1.304 3.833-0.335 0.561-0.676 1.012-0.926 1.316-0.128 0.152-0.225 0.268-0.299 0.347-0.037 0.037-0.061 0.067-0.079 0.085l-0.018 0.018c-0.28 0.28-0.36 0.695-0.207 1.060s0.506 0.603 0.902 0.603c1.749 0 3.51-0.542 4.973-1.176 1.395-0.609 2.584-1.334 3.309-1.865 1.938 0.701 4.083 1.091 6.344 1.091v-0.006zM8.603 13.475c0.517 0 1.013 0.205 1.379 0.571s0.571 0.862 0.571 1.379c0 0.517-0.206 1.013-0.571 1.379s-0.862 0.571-1.379 0.571c-0.517 0-1.013-0.205-1.379-0.571s-0.571-0.862-0.571-1.379c0-0.517 0.205-1.013 0.571-1.379s0.862-0.571 1.379-0.571zM16.403 13.475c0.517 0 1.013 0.205 1.379 0.571s0.571 0.862 0.571 1.379c0 0.517-0.206 1.013-0.571 1.379s-0.862 0.571-1.379 0.571c-0.517 0-1.013-0.205-1.379-0.571s-0.571-0.862-0.571-1.379c0-0.517 0.205-1.013 0.571-1.379s0.862-0.571 1.379-0.571zM22.253 15.425c0-0.517 0.205-1.013 0.571-1.379s0.862-0.571 1.379-0.571c0.517 0 1.013 0.205 1.379 0.571s0.571 0.862 0.571 1.379c0 0.517-0.206 1.013-0.571 1.379s-0.862 0.571-1.379 0.571c-0.517 0-1.013-0.205-1.379-0.571s-0.571-0.862-0.571-1.379z"></path>
</symbol>
<symbol id="check-mark" viewBox="0 0 32 32">
<path d="M15.34 30.678c-8.399 0-15.338-6.939-15.338-15.338s6.927-15.338 15.326-15.338c8.399 0 15.35 6.939 15.35 15.338s-6.939 15.338-15.338 15.338zM13.454 23.044c0.436 0 0.813-0.2 1.096-0.636l7.916-12.405c0.177-0.259 0.33-0.577 0.33-0.86 0-0.624-0.554-1.013-1.131-1.013-0.342 0-0.683 0.2-0.942 0.601l-7.327 11.651-3.899-4.889c-0.306-0.389-0.624-0.53-1.001-0.53-0.577 0-1.060 0.459-1.060 1.084 0 0.294 0.118 0.613 0.318 0.86l4.547 5.513c0.365 0.448 0.719 0.624 1.154 0.624z"></path>
</symbol>
</defs>
</svg>
