<svg xmlns="http://www.w3.org/2000/svg" aria-hidden="true" style="position:absolute;width:0;height:0;overflow:hidden">
  <defs>
    <symbol id="phone" viewBox="0 0 32 32">
      <path d="M10.826 3.884a1.973 1.973 0 0 0-2.345-1.148L4.127 3.924a1.985 1.985 0 0 0-1.46 1.91c0 12.241 9.926 22.167 22.167 22.167.891 0 1.672-.599 1.91-1.46l1.187-4.354a1.973 1.973 0 0 0-1.148-2.345l-4.75-1.979a1.973 1.973 0 0 0-2.291.574l-1.999 2.439a16.723 16.723 0 0 1-7.951-7.951l2.439-1.994c.678-.554.91-1.484.574-2.291l-1.979-4.75v-.005z"/>
    </symbol>
    <symbol id="logo" viewBox="0 0 70 32">
      <path fill="#0c6535" d="M67.765 23.334c.751-.011 1.311.129 1.68.42.37.28.555.689.555 1.227 0 .527-.162.98-.487 1.361-.313.37-.7.633-1.159.79.325.336.616.678.874 1.025.269.347.403.711.403 1.092 0 .751-.297 1.333-.891 1.748-.594.403-1.423.605-2.487.605-1.053 0-1.843-.207-2.369-.622-.527-.426-.79-.902-.79-1.428 0-.538.129-1.025.387-1.462.269-.437.554-.655.857-.655.179 0 .308.067.387.202.078.123.224.493.437 1.109.078.224.207.437.387.639.414.459 1.07.689 1.966.689a2.65 2.65 0 0 0-.655-1.092c-.291-.314-.583-.616-.874-.907s-.549-.599-.773-.924a2.07 2.07 0 0 1-.336-1.176c0-.807.302-1.462.907-1.966a3.121 3.121 0 0 1 1.983-.672zm-.067 3.109c.448-.482.672-.868.672-1.159a.484.484 0 0 0-.151-.353c-.089-.112-.224-.168-.403-.168s-.353.022-.521.067a7.121 7.121 0 0 1-.387.101c0 .426.263.93.79 1.512z" style="fill:var(--color1, #0c6535)"/>
      <path fill="#0c6535" d="M64.471 27.502c.202 0 .302.258.302.773 0 .28-.118.622-.353 1.025a4.645 4.645 0 0 1-.924 1.092c-.37.325-.784.594-1.243.807s-.907.319-1.344.319c-.616 0-1.019-.504-1.21-1.512-.672 1.064-1.669 1.596-2.991 1.596-.807 0-1.451-.246-1.932-.739s-.717-1.092-.706-1.798c0-1.904.633-3.406 1.899-4.503.874-.751 1.781-1.126 2.722-1.126.426 0 .762.034 1.008.101l.386.101c.459-2.162.991-3.607 1.596-4.335.202-.246.403-.37.605-.37.325 0 .627.224.907.672.246.37.37.689.37.958s-.039.532-.118.79a3.782 3.782 0 0 1-.302.723 6.4 6.4 0 0 1-.387.639c-.146.202-.291.409-.437.622-.325 1.21-.566 2.565-.723 4.067-.045.426-.067.767-.067 1.025 0 .773.129 1.159.387 1.159.291 0 .997-.583 2.117-1.748.202-.224.347-.336.437-.336zM56.54 28.51c0 .863.319 1.294.958 1.294.381 0 .762-.146 1.143-.437.392-.291.695-.779.907-1.462.022-1.008.14-2.117.353-3.327-.896.179-1.68.616-2.353 1.311s-1.008 1.568-1.008 2.621z" style="fill:var(--color1, #0c6535)"/>
      <path fill="#0c6535" d="m48.927 28.645.101 2.05c0 .269-.14.51-.42.723s-.661.319-1.143.319c-.28 0-.476-.146-.588-.437-.101-.291-.151-.717-.151-1.277 0-1.176.056-2.095.168-2.756.123-.672.358-1.35.706-2.033-.515-.493-.773-.919-.773-1.277 0-.751.403-1.126 1.21-1.126.415 0 .779.218 1.092.655.224.302.386.655.487 1.059.157.056.353.084.588.084.325 0 .7-.106 1.126-.319l.437-.218a.814.814 0 0 1 .353-.101c.325 0 .65.476.975 1.428-.101.437-.213.857-.336 1.26l-.403 1.462c-.157.571-.241.958-.252 1.159 0 .19.062.286.185.286.168 0 .375-.106.622-.319s.493-.443.739-.689c.246-.258.471-.493.672-.706.213-.213.358-.319.437-.319.157 0 .235.19.235.571 0 .773-.342 1.535-1.025 2.285-.672.751-1.445 1.12-2.319 1.109-.515 0-.902-.207-1.159-.622s-.392-.919-.403-1.512c0-1.176.263-2.291.79-3.344a2.2 2.2 0 0 1-.84.151c-.302 0-.521-.011-.655-.034-.101.426-.202.857-.302 1.294a5.182 5.182 0 0 0-.151 1.193z" style="fill:var(--color1, #0c6535)"/>
      <path fill="#0c6535" d="M47.011 27.502c.202 0 .302.258.302.773 0 .28-.118.622-.353 1.025a4.645 4.645 0 0 1-.924 1.092c-.37.325-.784.594-1.244.807s-.907.319-1.344.319c-.594 0-.991-.521-1.193-1.563a3.742 3.742 0 0 1-1.143 1.193c-.471.302-1.103.454-1.899.454-.784 0-1.417-.246-1.899-.739s-.717-1.092-.706-1.798c0-1.904.633-3.406 1.899-4.503.538-.459 1.036-.762 1.496-.907.471-.146.963-.218 1.479-.218s.935.09 1.26.269c.157-.325.336-.487.538-.487.392 0 .762.174 1.109.521.358.336.538.655.538.958-.157.37-.386.812-.689 1.327-.09.515-.134 1.238-.134 2.168s.118 1.395.353 1.395c.291 0 .997-.583 2.117-1.748.202-.224.347-.336.437-.336zm-7.932 1.008c0 .863.319 1.294.958 1.294.683-.011 1.249-.375 1.697-1.092.157-.246.286-.549.386-.907 0-1.255.112-2.33.336-3.226-.907.179-1.697.616-2.369 1.311s-1.008 1.568-1.008 2.621z" style="fill:var(--color1, #0c6535)"/>
      <path fill="#0c6535" d="M33.001 25.821c0-.403-.241-.605-.723-.605-.471 0-.935.37-1.395 1.109-.459.728-.745 1.473-.857 2.235l.067.773c.022.258.034.51.034.756 0 .594-.196.997-.588 1.21-.179.101-.353.196-.521.286-.157.09-.342.134-.555.134s-.403-.14-.571-.42c-.157-.291-.235-.739-.235-1.344 0-1.692.123-3.159.37-4.403.381-1.927 1.137-3.988 2.268-6.184.157-.302.387-.448.689-.437.302 0 .549.207.739.622s.28.762.269 1.042c0 .28-.045.555-.134.823a4.511 4.511 0 0 1-.319.773 9.43 9.43 0 0 1-.437.773c-.157.258-.314.538-.471.84l-.252 1.21c.437-.728 1.025-1.215 1.764-1.462.269-.09.566-.134.891-.134.762 0 1.339.174 1.731.521.392.336.588.818.588 1.445a7.38 7.38 0 0 1-.252 1.882 47.995 47.995 0 0 1-.353 1.378c-.067.269-.101.493-.101.672s.062.269.185.269c.168 0 .375-.106.622-.319s.493-.443.739-.689c.246-.258.471-.493.672-.706.213-.213.358-.319.437-.319.157 0 .235.19.235.571 0 .784-.387 1.54-1.159 2.269-1.3.762-2.128 1.143-2.487 1.143-.034 0-.056-.006-.067-.017-.896 0-1.344-.717-1.344-2.151 0-.616.056-1.182.168-1.697l.269-1.126c.056-.235.084-.476.084-.723z" style="fill:var(--color1, #0c6535)"/>
      <path fill="#0c6535" d="M27.939 27.502c.202 0 .302.174.302.521 0 .336-.09.7-.269 1.092a3.817 3.817 0 0 1-.79 1.143c-.347.358-.795.667-1.344.924s-1.199.386-1.949.386a3.078 3.078 0 0 1-1.949-.655c-.56-.448-.84-1.087-.84-1.916 0-.84.129-1.596.386-2.268a6.06 6.06 0 0 1 1.042-1.764c.437-.493.93-.874 1.479-1.143.549-.28 1.07-.42 1.563-.42.863 0 1.294.342 1.294 1.025 0 .392-.084.706-.252.941-.157.235-.319.353-.487.353-.224 0-.42-.078-.588-.235s-.353-.235-.555-.235c-.202-.011-.398.084-.588.286-.179.202-.33.459-.454.773-.246.627-.37 1.361-.37 2.201.011.403.196.706.555.907.246.134.538.207.874.218.336 0 .655-.112.958-.336.314-.224.599-.465.857-.723.258-.269.482-.515.672-.739.202-.224.353-.336.454-.336z" style="fill:var(--color1, #0c6535)"/>
      <path fill="#0c6535" d="m16.041 28.645.101 2.05c0 .269-.14.51-.42.723s-.661.319-1.143.319c-.28 0-.476-.146-.588-.437-.101-.291-.151-.717-.151-1.277 0-1.176.056-2.095.168-2.756.123-.672.358-1.35.706-2.033-.515-.493-.773-.919-.773-1.277 0-.751.403-1.126 1.21-1.126.415 0 .779.218 1.092.655.224.302.386.655.487 1.059.157.056.353.084.588.084.325 0 .7-.106 1.126-.319l.437-.218a.814.814 0 0 1 .353-.101c.325 0 .65.476.975 1.428-.101.437-.213.857-.336 1.26l-.403 1.462c-.157.571-.241.958-.252 1.159 0 .19.062.286.185.286.168 0 .375-.106.622-.319s.493-.443.739-.689c.246-.258.471-.493.672-.706.213-.213.359-.319.437-.319.157 0 .235.19.235.571 0 .773-.342 1.535-1.025 2.285-.672.751-1.445 1.12-2.319 1.109-.515 0-.902-.207-1.159-.622s-.392-.919-.403-1.512c0-1.176.263-2.291.79-3.344a2.2 2.2 0 0 1-.84.151c-.302 0-.521-.011-.655-.034-.101.426-.202.857-.302 1.294a5.182 5.182 0 0 0-.151 1.193zM10.536 20.545c0 .123-.168.185-.504.185-.123 0-.286-.017-.487-.05s-.577-.084-1.126-.151a14.584 14.584 0 0 0-1.764-.101c-.616 0-1.176.168-1.68.504-.504.325-.93.745-1.277 1.26a6.612 6.612 0 0 0-.79 1.731 6.956 6.956 0 0 0-.269 1.882c0 1.12.258 1.994.773 2.621s1.232.941 2.151.941c1.658 0 2.929-.588 3.814-1.764a4.92 4.92 0 0 0 .655-1.193c-.818-.101-1.445-.403-1.882-.907-.437-.515-.655-1.143-.655-1.882 0-.751.207-1.344.622-1.781s.969-.655 1.664-.655c.706 0 1.243.269 1.613.807.381.526.571 1.193.571 2 0 .28-.011.543-.034.79.202-.09.37-.185.504-.286s.269-.151.403-.151c.224 0 .336.095.336.286 0 .392-.134.734-.403 1.025-.258.28-.605.493-1.042.639-.336 1.636-1.053 2.929-2.151 3.882-1.087.952-2.498 1.428-4.235 1.428s-3.092-.527-4.067-1.58c-.851-.93-1.277-2.123-1.277-3.579a8.8 8.8 0 0 1 .47-2.857 7.972 7.972 0 0 1 1.361-2.437c.594-.706 1.311-1.271 2.151-1.697s1.781-.639 2.823-.639c1.053 0 1.938.185 2.655.555s1.075.762 1.075 1.176zm-.538 2.117c-.235 0-.353.19-.353.571 0 .672.269 1.159.807 1.462a8.42 8.42 0 0 0 .05-.941c0-.728-.168-1.092-.504-1.092zM47.528 8.215c.751-.011 1.311.129 1.68.42.37.28.555.689.555 1.227 0 .526-.162.98-.487 1.361-.314.37-.7.633-1.159.79.325.336.616.678.874 1.025.269.347.403.711.403 1.092 0 .751-.297 1.333-.891 1.748-.594.403-1.423.605-2.487.605-1.053 0-1.843-.207-2.369-.622-.526-.426-.79-.902-.79-1.428 0-.538.129-1.025.386-1.462.269-.437.555-.655.857-.655.179 0 .308.067.386.202.078.123.224.493.437 1.109.078.224.207.437.386.639.415.459 1.07.689 1.966.689a2.639 2.639 0 0 0-.655-1.092c-.291-.314-.583-.616-.874-.907s-.549-.599-.773-.924a2.07 2.07 0 0 1-.336-1.176c0-.807.302-1.462.907-1.966a3.121 3.121 0 0 1 1.983-.672zm-.068 3.109c.448-.482.672-.868.672-1.159a.484.484 0 0 0-.151-.353c-.09-.112-.224-.168-.403-.168s-.353.022-.521.067a7.642 7.642 0 0 1-.386.101c0 .426.263.93.79 1.512zM41.145 6.014h1.042V9.24h-1.042V6.014zM41.346 12.383c.202 0 .302.258.302.773 0 .28-.118.622-.353 1.025a4.645 4.645 0 0 1-.924 1.092c-.37.325-.784.594-1.243.807s-.907.319-1.344.319c-.594 0-.991-.521-1.193-1.563a3.742 3.742 0 0 1-1.143 1.193c-.47.302-1.103.454-1.899.454-.784 0-1.417-.246-1.899-.739s-.717-1.092-.706-1.798c0-1.904.633-3.406 1.899-4.503.538-.459 1.036-.762 1.496-.907.471-.146.963-.218 1.479-.218s.935.09 1.26.269c.157-.325.336-.487.538-.487.392 0 .762.174 1.109.521.358.336.538.655.538.958-.157.37-.386.812-.689 1.327-.09.515-.134 1.238-.134 2.168s.118 1.395.353 1.395c.291 0 .997-.583 2.117-1.748.202-.224.347-.336.437-.336zm-7.931 1.008c0 .863.319 1.294.958 1.294.683-.011 1.249-.375 1.697-1.092a3.4 3.4 0 0 0 .387-.907c0-1.255.112-2.33.336-3.226-.907.179-1.697.616-2.369 1.311s-1.008 1.568-1.008 2.621z" style="fill:var(--color1, #0c6535)"/>
      <path fill="#0c6535" d="M24.237 7.964c.403 0 .784.386 1.143 1.159.527-.549 1.176-.823 1.949-.823.784 0 1.372.174 1.764.521.392.336.588.818.588 1.445a7.38 7.38 0 0 1-.252 1.882 47.995 47.995 0 0 1-.353 1.378c-.067.269-.101.493-.101.672s.062.269.185.269c.168 0 .375-.106.622-.319s.493-.442.739-.689c.246-.258.471-.493.672-.706.213-.213.358-.319.437-.319.157 0 .235.19.235.571 0 .784-.386 1.54-1.159 2.269-1.299.762-2.128 1.143-2.487 1.143-.034 0-.056-.006-.067-.017-.896 0-1.344-.717-1.344-2.151 0-.616.056-1.182.168-1.697l.269-1.126c.056-.235.084-.476.084-.723 0-.403-.235-.605-.706-.605-.459 0-.902.347-1.327 1.042a6.501 6.501 0 0 0-.84 2.134v.118c0 .381.056.773.168 1.176.123.403.185.683.185.84 0 .381-.476.756-1.428 1.126a1.096 1.096 0 0 1-.386.084c-.28 0-.476-.146-.588-.437-.101-.291-.151-.745-.151-1.361 0-1.591.062-2.739.185-3.445a7.466 7.466 0 0 1 1.143-2.941c.202-.314.42-.471.655-.471z" style="fill:var(--color1, #0c6535)"/>
      <path fill="#0c6535" d="M15.213 7.964c.403 0 .784.386 1.143 1.159.527-.549 1.176-.823 1.949-.823.784 0 1.372.174 1.764.521.392.336.588.818.588 1.445a7.38 7.38 0 0 1-.252 1.882 47.995 47.995 0 0 1-.353 1.378c-.067.269-.101.493-.101.672s.062.269.185.269c.168 0 .375-.106.622-.319s.493-.442.739-.689c.246-.258.471-.493.672-.706.213-.213.358-.319.437-.319.157 0 .235.19.235.571 0 .784-.386 1.54-1.159 2.269-1.299.762-2.128 1.143-2.487 1.143-.034 0-.056-.006-.067-.017-.896 0-1.344-.717-1.344-2.151 0-.616.056-1.182.168-1.697l.269-1.126c.056-.235.084-.476.084-.723 0-.403-.235-.605-.706-.605-.459 0-.902.347-1.327 1.042a6.501 6.501 0 0 0-.84 2.134v.118c0 .381.056.773.168 1.176.123.403.185.683.185.84 0 .381-.476.756-1.428 1.126a1.096 1.096 0 0 1-.386.084c-.28 0-.476-.146-.588-.437-.101-.291-.151-.745-.151-1.361 0-1.591.062-2.739.185-3.445a7.466 7.466 0 0 1 1.143-2.941c.202-.314.42-.471.655-.471z" style="fill:var(--color1, #0c6535)"/>
      <path fill="#0c6535" d="M13.526 12.383c.19 0 .286.258.286.773 0 .28-.118.622-.353 1.025a4.645 4.645 0 0 1-.924 1.092c-.37.325-.784.594-1.243.807s-.907.319-1.344.319c-.661 0-1.12-.162-1.378-.487-.246-.336-.37-.823-.37-1.462 0-.65.252-1.759.756-3.327a87.77 87.77 0 0 0-3.378-.101h-.235a24.403 24.403 0 0 0-.302 3.915c0 .605-.23 1.019-.689 1.244-.213.101-.42.196-.622.286-.19.09-.398.134-.622.134-.56 0-.84-.504-.84-1.512s.23-2.302.689-3.882c-.493.056-.93.112-1.311.168-.37.056-.661.084-.874.084s-.319-.056-.319-.168c0-.336.274-.678.823-1.025.56-.347 1.316-.611 2.268-.79 1.053-2.677 2.341-4.464 3.865-5.36a3.407 3.407 0 0 1 1.781-.504c1.12.011 1.927.314 2.42.907.504.594.756 1.383.756 2.369.011.975-.286 2.246-.891 3.814-.224.605-.431 1.154-.622 1.647s-.286.891-.286 1.193.022.532.067.689c.045.157.151.235.319.235.302 0 1.014-.583 2.134-1.748.202-.224.347-.336.437-.336zM9.947 7.375c0-.975-.364-1.462-1.092-1.462-.739 0-1.378.314-1.916.941-.527.616-.935 1.445-1.227 2.487l3.814.05c.28-.896.42-1.568.42-2.016z" style="fill:var(--color1, #0c6535)"/>
      <path fill="#c22d22" d="M59.15 17.245c-2.659 0-4.779-1.435-5.389-2.095V6.327c1.464-2.797 6.119-2.008 9.749-.224 2.073 1.019 2.5 4.338 2.073 6.76s-3.11 4.382-6.434 4.382z" style="fill:var(--color2, #c22d22)"/>
      <path fill="#fffded" d="M54.755 14.718v-7.6c5.735-1.932 6.211 8.021 3.83 8.373-1.905.281-3.347-.398-3.83-.773z" style="fill:var(--color3, #fffded)"/>
      <path fill="#c22d22" d="M55.584 11.666c-.013.448.178 1.307 1.044 1.16s-.335-.835-1.044-1.16zM55.55 11.287c.672.102 2.011.162 1.986-.412s-1.334.035-1.986.412zM55.571 10.446c.672-.103 1.903-.434 1.449-.935s-1.155.414-1.449.935z" style="fill:var(--color2, #c22d22)"/>
      <path fill="#22181b" stroke="#c22d22" stroke-width=".667" d="M55.171 3.538c-1.215.382-1.316 1.837-1.215 2.516h1.215V4.926c0-.659 1.863-1.2 2.795-1.388v-.651c-.425.058-1.58.269-2.795.651z" style="fill:var(--color4, #22181b);stroke:var(--color2, #c22d22)"/>
      <path fill="#0c6535" d="M53.837.992c.66.247 1.774 1.17 2.134 1.788l.11.57-.635-.043c-2.59-.241-4.7-3.472-1.609-2.314z" style="fill:var(--color1, #0c6535)"/>
    </symbol>
    <symbol id="menu-hamburger" viewBox="0 0 31 32">
      <path d="M7.979 10.459c0-.613.481-1.108 1.077-1.108h12.919c.596 0 1.077.495 1.077 1.108s-.481 1.108-1.077 1.108H9.056c-.595 0-1.077-.495-1.077-1.108zm0 5.541c0-.613.481-1.108 1.077-1.108h12.919c.596 0 1.077.495 1.077 1.108s-.481 1.108-1.077 1.108H9.056c-.595 0-1.077-.495-1.077-1.108zm15.072 5.541c0 .613-.481 1.108-1.077 1.108H9.055c-.595 0-1.077-.495-1.077-1.108s.481-1.108 1.077-1.108h12.919c.596 0 1.077.495 1.077 1.108z"/>
    </symbol>
    <symbol id="close" viewBox="0 0 31 32">
      <path d="M21.745 11.773a1.42 1.42 0 0 0-2.007-2.007l-4.666 4.67-4.67-4.666a1.42 1.42 0 0 0-2.007 2.007l4.67 4.666-4.666 4.67a1.42 1.42 0 0 0 2.007 2.007l4.666-4.67 4.67 4.666a1.42 1.42 0 0 0 2.007-2.007l-4.67-4.666 4.666-4.67z"/>
    </symbol>
    <symbol id="facebook" viewBox="0 0 32 32">
      <path d="M21.388 9.143H10.612a1.472 1.472 0 0 0-1.469 1.469v10.776a1.472 1.472 0 0 0 1.469 1.469h4.202v-4.663h-1.929v-2.195h1.929v-1.673c0-1.903 1.133-2.954 2.867-2.954.831 0 1.7.148 1.7.148v1.867h-.957c-.943 0-1.237.585-1.237 1.186v1.425h2.105l-.337 2.195h-1.769v4.663h4.202a1.472 1.472 0 0 0 1.469-1.469V10.611a1.472 1.472 0 0 0-1.469-1.469z"/>
    </symbol>
    <symbol id="instagram" viewBox="0 0 32 32">
      <path d="M16.002 12.483c-1.946 0-3.515 1.57-3.515 3.515s1.569 3.515 3.515 3.515c1.946 0 3.515-1.57 3.515-3.515s-1.57-3.515-3.515-3.515zm0 5.801c-1.258 0-2.285-1.025-2.285-2.285s1.025-2.285 2.285-2.285c1.261 0 2.285 1.025 2.285 2.285s-1.028 2.285-2.285 2.285zm4.479-5.945c0 .456-.367.82-.82.82a.82.82 0 1 1 .82-.82zm2.328.832c-.052-1.098-.303-2.071-1.108-2.873-.802-.802-1.774-1.052-2.873-1.108-1.132-.064-4.525-.064-5.657 0-1.095.052-2.068.303-2.873 1.104s-1.052 1.774-1.108 2.873c-.064 1.132-.064 4.525 0 5.657.052 1.098.303 2.071 1.108 2.873s1.774 1.052 2.873 1.108c1.132.064 4.525.064 5.657 0 1.098-.052 2.071-.303 2.873-1.108.802-.802 1.052-1.774 1.108-2.873.064-1.132.064-4.522 0-5.654zm-1.463 6.869a2.313 2.313 0 0 1-1.303 1.303c-.903.358-3.044.275-4.042.275s-3.142.08-4.042-.275a2.313 2.313 0 0 1-1.303-1.303c-.358-.903-.275-3.044-.275-4.042s-.08-3.142.275-4.042c.239-.6.701-1.062 1.303-1.303.903-.358 3.044-.275 4.042-.275s3.142-.08 4.042.275c.6.239 1.062.701 1.303 1.303.358.903.275 3.044.275 4.042s.083 3.142-.275 4.042z"/>
    </symbol>
    <symbol id="whatsapp" viewBox="0 0 32 32">
      <path fill="#43c654" d="M16 0c8.837 0 16 7.163 16 16s-7.163 16-16 16S0 24.837 0 16 7.163 0 16 0z" style="fill:var(--color1, #43c654)"/>
      <path fill="#fff" d="M22.004 9.793a8.605 8.605 0 0 0-6.133-2.543c-4.781 0-8.672 3.891-8.672 8.672a8.68 8.68 0 0 0 1.156 4.336l-1.23 4.492 4.598-1.207a8.65 8.65 0 0 0 4.145 1.055h.004c4.777 0 8.754-3.891 8.754-8.672 0-2.316-.984-4.492-2.621-6.133zm-6.133 13.344a7.199 7.199 0 0 1-3.672-1.004l-.262-.156-2.727.715.727-2.66-.172-.273a7.181 7.181 0 0 1-1.102-3.836c0-3.973 3.234-7.207 7.211-7.207 1.926 0 3.734.75 5.094 2.113s2.195 3.172 2.191 5.098c0 3.977-3.316 7.211-7.289 7.211zm3.953-5.399c-.215-.109-1.281-.633-1.48-.703-.199-.074-.344-.109-.488.109s-.559.703-.687.852c-.125.145-.254.164-.469.055-1.273-.637-2.109-1.137-2.949-2.578-.223-.383.223-.355.637-1.184.07-.145.035-.27-.02-.379s-.488-1.176-.668-1.609c-.176-.422-.355-.363-.488-.371-.125-.008-.27-.008-.414-.008s-.379.055-.578.27c-.199.219-.758.742-.758 1.809s.777 2.098.883 2.242c.109.145 1.527 2.332 3.703 3.273 1.375.594 1.914.645 2.602.543.418-.063 1.281-.523 1.461-1.031s.18-.941.125-1.031c-.051-.098-.195-.152-.41-.258z" opacity=".9" style="fill:var(--color2, #fff)"/>
    </symbol>
    <symbol id="telegram" viewBox="0 0 32 32">
      <path fill="#30a8db" d="M16 0c8.837 0 16 7.163 16 16s-7.163 16-16 16S0 24.837 0 16 7.163 0 16 0z" style="fill:var(--color3, #30a8db)"/>
      <path fill="#fff" d="M16 6.07c-5.484 0-9.93 4.446-9.93 9.93s4.446 9.93 9.93 9.93 9.93-4.446 9.93-9.93S21.484 6.07 16 6.07zm4.603 6.753c-.149 1.57-.796 5.38-1.125 7.139-.139.744-.413.994-.679 1.018-.577.053-1.014-.381-1.573-.747-.874-.573-1.368-.929-2.216-1.489-.98-.646-.345-1.001.214-1.582.146-.152 2.687-2.463 2.736-2.672.006-.026.012-.124-.046-.176s-.144-.034-.206-.02c-.088.02-1.484.943-4.188 2.768-.396.272-.755.405-1.077.398-.355-.008-1.037-.2-1.544-.365-.622-.202-1.116-.309-1.073-.652.022-.179.269-.362.739-.549a462.308 462.308 0 0 1 5.791-2.494c2.758-1.147 3.331-1.346 3.704-1.353.082-.001.266.019.385.116.079.069.13.165.141.269.02.129.026.261.017.391z" opacity=".9" style="fill:var(--color2, #fff)"/>
    </symbol>
    <symbol id="viber" viewBox="0 0 32 32">
      <path fill="#6f3fad" d="M16 0c8.837 0 16 7.163 16 16s-7.163 16-16 16S0 24.837 0 16 7.163 0 16 0z" style="fill:var(--color4, #6f3fad)"/>
      <path fill="#fff" d="M23.528 7.748c-.508-.468-2.566-1.962-7.155-1.982 0 0-5.409-.324-8.044 2.094-1.465 1.465-1.982 3.615-2.038 6.278s-.124 7.651 4.685 9.005h.004l-.004 2.066s-.032.837.52 1.005c.665.208 1.057-.428 1.694-1.113.348-.376.829-.929 1.193-1.349 3.291.276 5.818-.356 6.106-.448.665-.216 4.424-.697 5.033-5.686.633-5.149-.304-8.4-1.994-9.87zm.556 9.494c-.517 4.164-3.564 4.428-4.124 4.608-.24.076-2.462.629-5.253.448 0 0-2.082 2.51-2.731 3.163-.212.212-.444.192-.44-.228 0-.276.016-3.431.016-3.431-.004 0-.004 0 0 0-4.076-1.129-3.836-5.377-3.792-7.599s.464-4.044 1.706-5.269c2.23-2.022 6.823-1.722 6.823-1.722 3.88.016 5.738 1.185 6.17 1.578 1.429 1.225 2.158 4.156 1.626 8.452zm-5.565-3.236c.016.344-.5.368-.516.024-.044-.881-.456-1.309-1.305-1.357-.344-.02-.312-.537.028-.517 1.117.06 1.738.701 1.794 1.85zm.812.453c.04-1.698-1.021-3.027-3.035-3.175-.34-.024-.304-.541.036-.517 2.322.168 3.559 1.766 3.515 3.704-.004.344-.525.328-.517-.012zm1.882.536c.004.344-.517.348-.517.004-.024-3.263-2.198-5.041-4.837-5.061-.34-.004-.34-.517 0-.517 2.951.02 5.325 2.058 5.353 5.573zm-.452 3.928v.008c-.432.761-1.241 1.602-2.074 1.333l-.008-.012c-.845-.236-2.835-1.261-4.092-2.262a10.482 10.482 0 0 1-1.698-1.698 13.008 13.008 0 0 1-1.233-1.866c-.853-1.542-1.041-2.23-1.041-2.23-.268-.833.569-1.642 1.333-2.074h.008c.368-.192.721-.128.957.156 0 0 .496.593.709.885.2.272.468.709.609.953.244.436.092.881-.148 1.065l-.48.384c-.244.196-.212.561-.212.561s.713 2.695 3.375 3.375c0 0 .364.032.561-.212l.384-.481c.184-.24.629-.392 1.065-.148.589.332 1.337.849 1.834 1.317.28.228.344.577.152.945z" opacity=".9" style="fill:var(--color2, #fff)"/>
    </symbol>
    <symbol id="comment" viewBox="0 0 32 32">
      <path d="M16.403 28.1c8.617 0 15.6-5.673 15.6-12.675S25.02 2.75 16.403 2.75.803 8.423.803 15.425c0 2.748 1.079 5.289 2.907 7.367-.116 1.493-.695 2.822-1.304 3.833a10.867 10.867 0 0 1-.926 1.316c-.128.152-.225.268-.299.347-.037.037-.061.067-.079.085l-.018.018c-.28.28-.36.695-.207 1.06s.506.603.902.603c1.749 0 3.51-.542 4.973-1.176 1.395-.609 2.584-1.334 3.309-1.865a18.655 18.655 0 0 0 6.344 1.091v-.006zm-7.8-14.625a1.95 1.95 0 1 1 0 3.9 1.95 1.95 0 0 1 0-3.9zm7.8 0a1.95 1.95 0 1 1 0 3.9 1.95 1.95 0 0 1 0-3.9zm5.85 1.95a1.95 1.95 0 1 1 3.9 0 1.95 1.95 0 0 1-3.9 0z"/>
    </symbol>
    <symbol id="check-mark" viewBox="0 0 32 32">
      <path d="M15.34 30.678C6.941 30.678.002 23.739.002 15.34S6.929.002 15.328.002c8.399 0 15.35 6.939 15.35 15.338S23.739 30.678 15.34 30.678zm-1.886-7.634c.436 0 .813-.2 1.096-.636l7.916-12.405c.177-.259.33-.577.33-.86 0-.624-.554-1.013-1.131-1.013-.342 0-.683.2-.942.601l-7.327 11.651-3.899-4.889c-.306-.389-.624-.53-1.001-.53a1.06 1.06 0 0 0-1.06 1.084c0 .294.118.613.318.86l4.547 5.513c.365.448.719.624 1.154.624z"/>
    </symbol>
    <symbol id="chevron-down" viewBox="0 0 59 32">
      <path fill="none" stroke="#0c6535" stroke-linecap="round" stroke-linejoin="round" stroke-miterlimit="10" stroke-width="5.333" d="M5.333 5.333 25.091 27.38c2.333 2.604 6.151 2.604 8.485 0L53.334 5.333" style="stroke:var(--color1, #0c6535)"/>
    </symbol>
    <symbol id="arrow-left" viewBox="0 0 38 32">
      <path d="M23.76 27.961 12.32 16.42a.188.188 0 0 1 0-.267l11.382-11.45a.929.929 0 0 0 .024-1.281l-.169-.184c-.523-.567-1.056-.577-1.602-.032L9.682 15.481c-.539.539-.539 1.078 0 1.616L21.86 29.274c.532.532 1.083.554 1.653.064l.201-.174a.816.816 0 0 0 .285-.592.83.83 0 0 0-.239-.613z"/>
    </symbol>
    <symbol id="arrow-right" viewBox="0 0 38 32">
      <path d="M14.24 27.961 25.68 16.42a.188.188 0 0 0 0-.267L14.298 4.703a.929.929 0 0 1-.024-1.281l.169-.184c.522-.567 1.056-.577 1.602-.032l12.273 12.275c.539.539.539 1.078 0 1.616L16.14 29.274c-.532.532-1.083.554-1.653.064l-.201-.174a.816.816 0 0 1-.285-.592.83.83 0 0 1 .239-.613z"/>
    </symbol>
    <symbol id="question-arrow" viewBox="0 0 32 32">
      <path fill="none" stroke="#ffb801" stroke-linecap="round" stroke-linejoin="round" stroke-width="2" d="M7.001 7 23.5 23.499M23.5 7v16.499H7.001" style="stroke:var(--color1, #ffb801)"/>
    </symbol>
    <symbol id="map-marker" viewBox="0 0 32 32">
      <path d="M16.549 26.506C18.82 23.74 24 17.037 24 13.272c0-4.566-3.807-8.271-8.5-8.271S7 8.706 7 13.272c0 3.765 5.18 10.469 7.451 13.234a1.36 1.36 0 0 0 2.098 0zM15.5 10.514c.751 0 1.472.29 2.003.807s.83 1.218.83 1.95-.299 1.432-.83 1.95c-.531.517-1.252.808-2.003.808s-1.472-.29-2.003-.807c-.531-.517-.83-1.218-.83-1.95s.299-1.433.83-1.95a2.872 2.872 0 0 1 2.003-.807z"/>
    </symbol>
    <symbol id="phone" viewBox="0 0 32 32">
      <path d="M12.085 6.058a1.714 1.714 0 0 0-2.037-.997L6.267 6.092a1.724 1.724 0 0 0-1.268 1.659C4.999 18.381 13.618 27 24.248 27c.773 0 1.452-.52 1.659-1.267l1.031-3.781a1.714 1.714 0 0 0-.997-2.037l-4.125-1.719a1.714 1.714 0 0 0-1.989.498l-1.736 2.118a14.523 14.523 0 0 1-6.905-6.905l2.118-1.732a1.712 1.712 0 0 0 .498-1.989l-1.719-4.125v-.004z"/>
    </symbol>
    <symbol id="email" viewBox="0 0 32 32">
      <path d="M5.844 6.5C4.55 6.5 3.5 7.536 3.5 8.813c0 .727.347 1.412.938 1.85l10.625 7.862c.557.41 1.318.41 1.875 0l10.625-7.863a2.303 2.303 0 0 0 .938-1.85c0-1.277-1.05-2.313-2.344-2.313H5.845zM3.5 11.896v10.021C3.5 23.618 4.901 25 6.625 25h18.75c1.724 0 3.125-1.383 3.125-3.083V11.896l-10.625 7.863a3.153 3.153 0 0 1-3.75 0L3.5 11.896z"/>
    </symbol>
    <symbol id="close" viewBox="0 0 32 32">
      <path d="M22.424 11.641a1.465 1.465 0 0 0-2.07-2.07l-4.811 4.816-4.816-4.811a1.465 1.465 0 0 0-2.07 2.07l4.816 4.811-4.811 4.816a1.465 1.465 0 0 0 2.07 2.07l4.811-4.816 4.816 4.811a1.465 1.465 0 0 0 2.07-2.07l-4.816-4.811 4.811-4.816z"/>
    </symbol>
  </defs>
</svg>
