<svg xmlns="http://www.w3.org/2000/svg" width="47" height="40" fill="none">
  <path fill="#FFB801" d="M24.807 6.273c-6.956 0-12.842 4.49-14.842 10.68a22.087 22.087 0 0 1 9.886-2.31h7.788a1.41 1.41 0 0 1 1.416 1.395 1.41 1.41 0 0 1-1.416 1.394H19.85c-1.47 0-2.894.166-4.275.471a19.152 19.152 0 0 0-6.319 2.677C4.124 23.953.734 29.715.734 36.263v1.395c0 1.16.947 2.092 2.124 2.092s2.124-.933 2.124-2.092v-1.395c0-4.246 1.832-8.064 4.762-10.74 1.752 6.582 7.832 11.437 15.063 11.437h.088c11.691-.06 21.152-11.411 21.152-25.404 0-3.713-.664-7.244-1.867-10.426-.23-.602-1.124-.575-1.434-.009-1.664 3.069-4.956 5.152-8.735 5.152h-9.204Z"/>
</svg>
