<svg xmlns="http://www.w3.org/2000/svg" width="39" height="47" fill="none">
  <path fill="#C22D22" d="M20.628 47c-7.288 0-13.098-3.932-14.77-5.743V17.073C9.87 9.408 22.631 11.57 32.58 16.46c5.683 2.793 6.853 11.89 5.683 18.529C37.093 41.629 29.738 47 20.628 47Z"/>
  <path fill="#FFFDED" d="M8.58 40.073v-20.83C24.3 13.947 25.605 41.228 19.077 42.19c-5.222.77-9.174-1.091-10.497-2.118Z"/>
  <path fill="#C22D22" d="M10.853 31.707c-.035 1.228.488 3.583 2.861 3.179 2.374-.405-.918-2.288-2.86-3.179ZM10.76 30.67c1.843.28 5.511.444 5.443-1.13-.068-1.574-3.657.097-5.443 1.13ZM10.819 28.365c1.842-.282 5.215-1.189 3.972-2.563-1.243-1.375-3.166 1.136-3.972 2.563Z"/>
  <path fill="#22181B" stroke="#C22D22" d="M9.72 9.432c-3.33 1.046-3.608 5.034-3.33 6.897h3.33v-3.091c0-1.808 5.107-3.29 7.66-3.806V7.648c-1.165.159-4.33.738-7.66 1.784Z"/>
  <path fill="#0C6535" d="M6.063 2.453c1.808.677 4.863 3.207 5.848 4.9l.3 1.562-1.739-.118C3.374 8.136-2.41-.72 6.063 2.453Z"/>
</svg>
