<svg xmlns="http://www.w3.org/2000/svg" width="45" height="45" fill="none">
  <path fill="#FFB801" d="M22.5 45a22.5 22.5 0 1 0 0-45 22.5 22.5 0 0 0 0 45Zm-8.077-16.392c1.573 1.82 4.263 3.736 8.077 3.736s6.504-1.916 8.077-3.736a1.407 1.407 0 0 1 1.986-.14c.59.51.65 1.397.141 1.986-1.96 2.25-5.361 4.702-10.204 4.702-4.843 0-8.244-2.452-10.204-4.702a1.407 1.407 0 0 1 .14-1.986 1.407 1.407 0 0 1 1.987.14ZM12.69 18.281a2.812 2.812 0 1 1 5.625 0 2.812 2.812 0 0 1-5.625 0Zm16.875-2.812a2.813 2.813 0 1 1 0 5.625 2.813 2.813 0 0 1 0-5.625Z"/>
</svg>
