<svg xmlns="http://www.w3.org/2000/svg" width="46" height="40" fill="none">
  <path fill="#FFB801" d="M5.75 0C2.579 0 0 2.563 0 5.714v28.572C0 37.437 2.579 40 5.75 40h34.5c3.172 0 5.75-2.563 5.75-5.714v-20c0-3.152-2.578-5.715-5.75-5.715H7.187c-.79 0-1.437-.642-1.437-1.428 0-.786.647-1.429 1.438-1.429H40.25a2.863 2.863 0 0 0 2.875-2.857A2.863 2.863 0 0 0 40.25 0H5.75Zm31.625 21.429c.763 0 1.494.3 2.033.836a2.848 2.848 0 0 1 0 4.041 2.884 2.884 0 0 1-4.066 0 2.848 2.848 0 0 1 0-4.04 2.884 2.884 0 0 1 2.033-.837Z"/>
</svg>
